<!-- FILENAME: images/feature-1.svg -->
<svg viewBox="0 0 300 200" xmlns="http://www.w3.org/2000/svg">
  <defs>
    <linearGradient id="f1-grad-blue" x1="0%" y1="0%" x2="100%" y2="100%">
      <stop offset="0%" stop-color="#0066cc"/> <stop offset="100%" stop-color="#004c99"/>
    </linearGradient>
  </defs>
  <!-- Document Icon -->
  <g transform="translate(20, 25)">
    <path d="M0 0 H100 V150 H20 L0 130 Z" fill="#f5f5f7" stroke="#d2d2d7" stroke-width="2"/>
    <path d="M100 0 L100 20 H80 Z" fill="#d2d2d7"/>
    <rect x="10" y="30" width="80" height="8" rx="2" fill="#e0e0e0"/>
    <rect x="10" y="45" width="70" height="8" rx="2" fill="#e0e0e0"/>
    <rect x="10" y="60" width="80" height="8" rx="2" fill="#e0e0e0"/>
    <rect x="10" y="75" width="60" height="8" rx="2" fill="#e0e0e0"/>
    <rect x="10" y="90" width="80" height="8" rx="2" fill="#e0e0e0"/>
    <rect x="10" y="105" width="70" height="8" rx="2" fill="#e0e0e0"/>
  </g>
  <!-- Arrow -->
  <path d="M135 95 H175 L165 85 M175 95 L165 105" stroke="url(#f1-grad-blue)" stroke-width="3" fill="none" stroke-linecap="round" stroke-linejoin="round"/>
  <!-- Profile Icon -->
   <g transform="translate(190, 35)">
      <rect x="0" y="0" width="90" height="130" rx="10" fill="white" stroke="#d2d2d7" stroke-width="2"/>
      <circle cx="45" cy="35" r="18" fill="#e0e0e0"/>
      <rect x="15" y="65" width="60" height="10" rx="3" fill="#b0c4de"/>
      <rect x="15" y="85" width="50" height="8" rx="2" fill="#e0e0e0"/>
      <rect x="15" y="100" width="60" height="8" rx="2" fill="#e0e0e0"/>
   </g>
</svg>