<!-- FILENAME: images/feature-2.svg -->
<svg viewBox="0 0 300 200" xmlns="http://www.w3.org/2000/svg">
   <defs>
    <linearGradient id="f2-grad-accent" x1="0%" y1="0%" x2="100%" y2="100%">
      <stop offset="0%" stop-color="#00e0c6"/> <stop offset="100%" stop-color="#00b3a1"/>
    </linearGradient>
  </defs>
  <!-- Search Bar/Bubble -->
  <g transform="translate(20, 20)">
    <rect x="0" y="0" width="260" height="40" rx="20" fill="#f5f5f7" stroke="#d2d2d7" stroke-width="1.5"/>
    <text x="20" y="26" font-size="12" fill="#86868b">Find engineers with AI experience...</text>
    <circle cx="240" cy="20" r="12" fill="url(#f2-grad-accent)"/>
     <path d="M237 17 L243 23 M237 23 L243 17" stroke="white" stroke-width="1.5" stroke-linecap="round"/>
  </g>
   <!-- Connecting lines -->
   <path d="M150 60 Q 100 80 70 100" stroke="#d2d2d7" stroke-dasharray="4 4" stroke-width="1.5" fill="none"/>
   <path d="M150 60 Q 150 80 150 100" stroke="#d2d2d7" stroke-dasharray="4 4" stroke-width="1.5" fill="none"/>
   <path d="M150 60 Q 200 80 230 100" stroke="#d2d2d7" stroke-dasharray="4 4" stroke-width="1.5" fill="none"/>
  <!-- Profile Icons -->
  <g transform="translate(50, 100)">
    <circle cx="0" cy="0" r="20" fill="white" stroke="#00e0c6" stroke-width="2"/>
    <circle cx="0" cy="-5" r="6" fill="#00e0c6"/>
    <path d="M -10 8 Q 0 15 10 8" stroke="#00e0c6" stroke-width="1.5" fill="none"/>
  </g>
   <g transform="translate(130, 100)">
    <circle cx="0" cy="0" r="20" fill="white" stroke="#cccccc" stroke-width="1.5"/>
    <circle cx="0" cy="-5" r="6" fill="#cccccc"/>
    <path d="M -10 8 Q 0 15 10 8" stroke="#cccccc" stroke-width="1.5" fill="none"/>
  </g>
   <g transform="translate(210, 100)">
     <circle cx="0" cy="0" r="20" fill="white" stroke="#00e0c6" stroke-width="2"/>
    <circle cx="0" cy="-5" r="6" fill="#00e0c6"/>
    <path d="M -10 8 Q 0 15 10 8" stroke="#00e0c6" stroke-width="1.5" fill="none"/>
  </g>
</svg>